%TF.GenerationSoftware,KiCad,Pcbnew,9.0.7*%
%TF.CreationDate,2026-01-29T17:08:34+02:00*%
%TF.ProjectId,Fab_Lab_Again,4661625f-4c61-4625-9f41-6761696e2e6b,rev?*%
%TF.SameCoordinates,Original*%
%TF.FileFunction,Copper,L1,Top*%
%TF.FilePolarity,Positive*%
%FSLAX46Y46*%
G04 Gerber Fmt 4.6, Leading zero omitted, Abs format (unit mm)*
G04 Created by KiCad (PCBNEW 9.0.7) date 2026-01-29 17:08:34*
%MOMM*%
%LPD*%
G01*
G04 APERTURE LIST*
G04 Aperture macros list*
%AMRoundRect*
0 Rectangle with rounded corners*
0 $1 Rounding radius*
0 $2 $3 $4 $5 $6 $7 $8 $9 X,Y pos of 4 corners*
0 Add a 4 corners polygon primitive as box body*
4,1,4,$2,$3,$4,$5,$6,$7,$8,$9,$2,$3,0*
0 Add four circle primitives for the rounded corners*
1,1,$1+$1,$2,$3*
1,1,$1+$1,$4,$5*
1,1,$1+$1,$6,$7*
1,1,$1+$1,$8,$9*
0 Add four rect primitives between the rounded corners*
20,1,$1+$1,$2,$3,$4,$5,0*
20,1,$1+$1,$4,$5,$6,$7,0*
20,1,$1+$1,$6,$7,$8,$9,0*
20,1,$1+$1,$8,$9,$2,$3,0*%
G04 Aperture macros list end*
%TA.AperFunction,ComponentPad*%
%ADD10C,1.700000*%
%TD*%
%TA.AperFunction,ComponentPad*%
%ADD11C,1.600000*%
%TD*%
%TA.AperFunction,ComponentPad*%
%ADD12RoundRect,0.250000X-0.550000X-0.550000X0.550000X-0.550000X0.550000X0.550000X-0.550000X0.550000X0*%
%TD*%
%TA.AperFunction,ComponentPad*%
%ADD13C,2.400000*%
%TD*%
%TA.AperFunction,ComponentPad*%
%ADD14RoundRect,0.250001X0.949999X-0.949999X0.949999X0.949999X-0.949999X0.949999X-0.949999X-0.949999X0*%
%TD*%
%TA.AperFunction,ComponentPad*%
%ADD15R,1.350000X1.350000*%
%TD*%
%TA.AperFunction,ComponentPad*%
%ADD16C,1.350000*%
%TD*%
%TA.AperFunction,ComponentPad*%
%ADD17R,1.800000X1.800000*%
%TD*%
%TA.AperFunction,ComponentPad*%
%ADD18C,1.800000*%
%TD*%
%TA.AperFunction,Conductor*%
%ADD19C,0.500000*%
%TD*%
G04 APERTURE END LIST*
D10*
%TO.P,SW1,2,2*%
%TO.N,GND*%
X56250000Y68750000D03*
X49750000Y68750000D03*
%TO.P,SW1,1,1*%
%TO.N,Net-(U1-PB2)*%
X56250000Y73250000D03*
X49750000Y73250000D03*
%TD*%
D11*
%TO.P,U1,8,VCC*%
%TO.N,5V*%
X48315000Y58810000D03*
%TO.P,U1,7,PB2*%
%TO.N,Net-(U1-PB2)*%
X48315000Y56270000D03*
%TO.P,U1,6,PB1*%
%TO.N,Net-(J1-SCK)*%
X48315000Y53730000D03*
%TO.P,U1,5,AREF/PB0*%
%TO.N,Net-(D1-A)*%
X48315000Y51190000D03*
%TO.P,U1,4,GND*%
%TO.N,GND*%
X40695000Y51190000D03*
%TO.P,U1,3,XTAL2/PB4*%
%TO.N,Net-(J1-MISO)*%
X40695000Y53730000D03*
%TO.P,U1,2,XTAL1/PB3*%
%TO.N,Net-(J1-MOSI)*%
X40695000Y56270000D03*
D12*
%TO.P,U1,1,~{RESET}/PB5*%
%TO.N,Net-(J1-~{RST})*%
X40695000Y58810000D03*
%TD*%
D13*
%TO.P,C1,2*%
%TO.N,GND*%
X70500000Y76000000D03*
D14*
%TO.P,C1,1*%
%TO.N,5V*%
X70500000Y41000000D03*
%TD*%
D11*
%TO.P,R2,1*%
%TO.N,Net-(D1-K)*%
X48810000Y32000000D03*
%TO.P,R2,2*%
%TO.N,GND*%
X41190000Y32000000D03*
%TD*%
D15*
%TO.P,J1,1,MISO*%
%TO.N,Net-(J1-MISO)*%
X46000000Y38000000D03*
D16*
%TO.P,J1,2,VCC*%
%TO.N,5V*%
X44000000Y38000000D03*
%TO.P,J1,3,SCK*%
%TO.N,Net-(J1-SCK)*%
X46000000Y40000000D03*
%TO.P,J1,4,MOSI*%
%TO.N,Net-(J1-MOSI)*%
X44000000Y40000000D03*
%TO.P,J1,5,~{RST}*%
%TO.N,Net-(J1-~{RST})*%
X46000000Y42000000D03*
%TO.P,J1,6,GND*%
%TO.N,GND*%
X44000000Y42000000D03*
%TD*%
D17*
%TO.P,D1,1,K*%
%TO.N,Net-(D1-K)*%
X54500000Y44500000D03*
D18*
%TO.P,D1,2,A*%
%TO.N,Net-(D1-A)*%
X57040000Y44500000D03*
%TD*%
D19*
%TO.N,GND*%
X67250000Y68750000D02*
X56250000Y68750000D01*
X70500000Y72000000D02*
X67250000Y68750000D01*
X70500000Y76000000D02*
X70500000Y72000000D01*
%TO.N,5V*%
X70500000Y35750000D02*
X70500000Y41000000D01*
X67250000Y32500000D02*
X70500000Y35750000D01*
X63500000Y32500000D02*
X67250000Y32500000D01*
X44000000Y26500000D02*
X50750000Y19750000D01*
X44000000Y28000000D02*
X44000000Y26500000D01*
X50750000Y19750000D02*
X63500000Y32500000D01*
%TO.N,Net-(J1-SCK)*%
X46574000Y39426000D02*
X46000000Y40000000D01*
X47426000Y39426000D02*
X46574000Y39426000D01*
X47426000Y36574000D02*
X47426000Y39426000D01*
X45500000Y36574000D02*
X47426000Y36574000D01*
X45500000Y26415628D02*
X45500000Y36574000D01*
X47957814Y23957814D02*
X45500000Y26415628D01*
X51308277Y27308277D02*
X47957814Y23957814D01*
X60000000Y35500000D02*
X60500000Y35500000D01*
X60000000Y49000000D02*
X60000000Y35500000D01*
X60500000Y35500000D02*
X52308277Y27308277D01*
X59500000Y49500000D02*
X60000000Y49000000D01*
X59500000Y53000000D02*
X59500000Y49500000D01*
X52308277Y27308277D02*
X51308277Y27308277D01*
X58770000Y53730000D02*
X59500000Y53000000D01*
X48315000Y53730000D02*
X58770000Y53730000D01*
%TO.N,Net-(D1-K)*%
X54500000Y37690000D02*
X48810000Y32000000D01*
X54500000Y44500000D02*
X54500000Y37690000D01*
%TO.N,Net-(D1-A)*%
X57040000Y44920000D02*
X57040000Y44500000D01*
X57000000Y44960000D02*
X57040000Y44920000D01*
X57000000Y51000000D02*
X57000000Y44960000D01*
X56810000Y51190000D02*
X57000000Y51000000D01*
X48315000Y51190000D02*
X56810000Y51190000D01*
%TO.N,5V*%
X36000000Y31500000D02*
X39500000Y28000000D01*
X36000000Y66500000D02*
X36000000Y31500000D01*
X40500000Y71000000D02*
X36000000Y66500000D01*
X46500000Y71000000D02*
X40500000Y71000000D01*
X46500000Y74500000D02*
X46500000Y71000000D01*
X52000000Y77000000D02*
X49000000Y77000000D01*
X53500000Y75500000D02*
X52000000Y77000000D01*
X53500000Y64000000D02*
X53500000Y75500000D01*
X47000000Y63500000D02*
X47500000Y64000000D01*
X48315000Y62185000D02*
X47000000Y63500000D01*
X47500000Y64000000D02*
X53500000Y64000000D01*
X49000000Y77000000D02*
X46500000Y74500000D01*
X48315000Y58810000D02*
X48315000Y62185000D01*
X39500000Y28000000D02*
X44000000Y28000000D01*
%TO.N,GND*%
X40000000Y68000000D02*
X41000000Y68000000D01*
X37500000Y65500000D02*
X40000000Y68000000D01*
X41000000Y68000000D02*
X41750000Y68750000D01*
X41750000Y68750000D02*
X49750000Y68750000D01*
X37500000Y32000000D02*
X37500000Y65500000D01*
X41190000Y32000000D02*
X37500000Y32000000D01*
%TO.N,Net-(U1-PB2)*%
X69000000Y56000000D02*
X68730000Y56270000D01*
X80500000Y67500000D02*
X69000000Y56000000D01*
X80500000Y79000000D02*
X80500000Y67500000D01*
X56250000Y78750000D02*
X56000000Y79000000D01*
X56000000Y79000000D02*
X80500000Y79000000D01*
X56250000Y73250000D02*
X56250000Y78750000D01*
X68730000Y56270000D02*
X48315000Y56270000D01*
X52000000Y71000000D02*
X49750000Y73250000D01*
X42000000Y66000000D02*
X52000000Y66000000D01*
X39500000Y63500000D02*
X42000000Y66000000D01*
X43500000Y60000000D02*
X40000000Y63500000D01*
X43500000Y56000000D02*
X43500000Y60000000D01*
X43770000Y56270000D02*
X43500000Y56000000D01*
X48315000Y56270000D02*
X43770000Y56270000D01*
X40000000Y63500000D02*
X39500000Y63500000D01*
X52000000Y66000000D02*
X52000000Y71000000D01*
%TO.N,Net-(J1-~{RST})*%
X45000000Y53000000D02*
X46000000Y52000000D01*
X46000000Y52000000D02*
X46000000Y42000000D01*
X42500000Y53000000D02*
X45000000Y53000000D01*
X42500000Y58500000D02*
X42500000Y53000000D01*
X42190000Y58810000D02*
X42500000Y58500000D01*
X40695000Y58810000D02*
X42190000Y58810000D01*
X40695000Y58805000D02*
X40695000Y58810000D01*
%TO.N,5V*%
X44000000Y38000000D02*
X44000000Y28000000D01*
%TO.N,Net-(J1-MOSI)*%
X38500000Y56500000D02*
X38730000Y56270000D01*
X38730000Y56270000D02*
X40695000Y56270000D01*
X43983331Y40000000D02*
X38500000Y45483331D01*
X38500000Y45483331D02*
X38500000Y56500000D01*
X44000000Y40000000D02*
X43983331Y40000000D01*
%TO.N,GND*%
X45000000Y51000000D02*
X45000000Y45000000D01*
X44810000Y51190000D02*
X45000000Y51000000D01*
X40695000Y51190000D02*
X44810000Y51190000D01*
X44000000Y44000000D02*
X45000000Y45000000D01*
X44000000Y42000000D02*
X44000000Y44000000D01*
%TD*%
M02*
